<?xml version="1.0" encoding="utf-8"?>
<!-- Generator: Adobe Illustrator 21.1.0, SVG Export Plug-In . SVG Version: 6.00 Build 0)  -->
<svg version="1.1" id="Layer_1" xmlns="http://www.w3.org/2000/svg" xmlns:xlink="http://www.w3.org/1999/xlink" x="0px" y="0px"
	 viewBox="0 0 68.7 26.5" style="enable-background:new 0 0 68.7 26.5;" xml:space="preserve">
<style type="text/css">
	.st0{fill:#FFFFFF;}
	.st1{fill:#D0D2D3;}
</style>
<g id="XMLID_107_">
	<path class="st0" d="M67.9,25.8c-0.4-5-4.6-8.9-9.7-8.9c-2,0-3.8,0.6-5.3,1.6c0-0.4,0.1-0.9,0.1-1.3c0-9.1-7.3-16.4-16.4-16.4
		c-8.4,0-15.4,6.4-16.3,14.5c-1.7-0.8-3.6-1.2-5.7-1.2c-6.9,0-12.6,5.1-13.7,11.7H67.9z"/>
	<path class="st1" d="M68.7,26.5H0l0.1-0.9c1.1-7.1,7.2-12.3,14.5-12.3c1.7,0,3.4,0.3,5.1,0.9C21,6.1,28.1,0,36.5,0
		C46,0,53.7,7.7,53.7,17.1c0,0,0,0,0,0c1.4-0.7,3-1,4.5-1c5.4,0,10,4.2,10.4,9.6L68.7,26.5z M1.8,25H67c-0.8-4.2-4.5-7.4-8.8-7.4
		c-1.8,0-3.5,0.5-4.9,1.5L52,19.9l0.1-1.5c0-0.4,0.1-0.8,0.1-1.3c0-8.6-7-15.6-15.6-15.6c-8,0-14.6,6-15.5,13.9l-0.1,1L19.9,16
		c-1.7-0.8-3.5-1.1-5.4-1.1C8.4,14.8,3.2,19.1,1.8,25z"/>
</g>
</svg>
