<?xml version="1.0" encoding="utf-8"?>
<!-- Generator: Adobe Illustrator 21.1.0, SVG Export Plug-In . SVG Version: 6.00 Build 0)  -->
<svg version="1.1" id="Layer_1" xmlns="http://www.w3.org/2000/svg" xmlns:xlink="http://www.w3.org/1999/xlink" x="0px" y="0px"
	 viewBox="0 0 410.3 77.5" style="enable-background:new 0 0 410.3 77.5;" xml:space="preserve">
<style type="text/css">
	.st0{display:none;}
	.st1{display:inline;}
	.st2{fill:#D0D2D3;}
	.st3{display:inline;fill:#BBBDBF;}
	.st4{display:none;fill:#BBBDBF;}
	.st5{display:none;fill:none;stroke:#BBBDBF;stroke-width:2;stroke-miterlimit:10;}
	.st6{display:none;fill:#FFFFFF;stroke:#BBBDBF;stroke-width:3;stroke-miterlimit:10;}
	.st7{fill:#BBBDBF;}
	.st8{fill:#FFFFFF;}
</style>
<g id="XMLID_53_" class="st0">
	<g id="XMLID_85_" class="st1">
		<g id="XMLID_231_">
			<path id="XMLID_254_" class="st2" d="M86.7,135.1c0,0.9-0.2,1.6-0.5,2.1c-0.3,0.4-0.8,0.7-1.4,0.7c-0.6,0-1.1-0.2-1.4-0.7
				c-0.3-0.5-0.5-1.1-0.5-2s0.2-1.6,0.5-2.1c0.3-0.4,0.8-0.7,1.4-0.7c0.6,0,1.1,0.2,1.4,0.7C86.6,133.5,86.7,134.2,86.7,135.1z
				 M84.1,135.1c0,0.6,0.1,1.1,0.2,1.4c0.1,0.3,0.3,0.4,0.6,0.4c0.3,0,0.4-0.1,0.6-0.4c0.1-0.3,0.2-0.7,0.2-1.4
				c0-0.6-0.1-1.1-0.2-1.4c-0.1-0.3-0.3-0.4-0.6-0.4c-0.3,0-0.5,0.1-0.6,0.4C84.2,134,84.1,134.4,84.1,135.1z"/>
			<path id="XMLID_252_" class="st2" d="M90,137.7h-1.1v-3.1v-0.5v-0.6c-0.2,0.2-0.3,0.3-0.4,0.4l-0.6,0.5l-0.5-0.7l1.7-1.4H90
				V137.7z"/>
			<path id="XMLID_250_" class="st2" d="M94.3,137.7h-1.1v-3.1v-0.5v-0.6c-0.2,0.2-0.3,0.3-0.4,0.4l-0.6,0.5l-0.5-0.7l1.7-1.4h0.9
				V137.7z"/>
			<path id="XMLID_247_" class="st2" d="M99.4,135.1c0,0.9-0.2,1.6-0.5,2.1c-0.3,0.4-0.8,0.7-1.4,0.7s-1.1-0.2-1.4-0.7
				s-0.5-1.1-0.5-2s0.2-1.6,0.5-2.1c0.3-0.4,0.8-0.7,1.4-0.7s1.1,0.2,1.4,0.7C99.2,133.5,99.4,134.2,99.4,135.1z M96.8,135.1
				c0,0.6,0.1,1.1,0.2,1.4c0.1,0.3,0.3,0.4,0.6,0.4c0.3,0,0.4-0.1,0.6-0.4c0.1-0.3,0.2-0.7,0.2-1.4c0-0.6-0.1-1.1-0.2-1.4
				c-0.1-0.3-0.3-0.4-0.6-0.4c-0.3,0-0.5,0.1-0.6,0.4S96.8,134.4,96.8,135.1z"/>
			<path id="XMLID_245_" class="st2" d="M102.7,137.7h-1.1v-3.1v-0.5v-0.6c-0.2,0.2-0.3,0.3-0.4,0.4l-0.6,0.5l-0.5-0.7l1.7-1.4h0.9
				V137.7z"/>
			<path id="XMLID_243_" class="st2" d="M85.8,145.4h-1.1v-3.1v-0.5v-0.6c-0.2,0.2-0.3,0.3-0.4,0.4l-0.6,0.5l-0.5-0.7l1.7-1.4h0.9
				C85.8,140,85.8,145.4,85.8,145.4z"/>
			<path id="XMLID_240_" class="st2" d="M90.9,142.7c0,0.9-0.2,1.6-0.5,2.1c-0.3,0.4-0.8,0.7-1.4,0.7c-0.6,0-1.1-0.2-1.4-0.7
				c-0.3-0.5-0.5-1.1-0.5-2s0.2-1.6,0.5-2.1c0.3-0.4,0.8-0.7,1.4-0.7c0.6,0,1.1,0.2,1.4,0.7C90.8,141.2,90.9,141.8,90.9,142.7z
				 M88.4,142.7c0,0.6,0.1,1.1,0.2,1.4c0.1,0.3,0.3,0.4,0.6,0.4c0.3,0,0.4-0.1,0.6-0.4c0.1-0.3,0.2-0.7,0.2-1.4
				c0-0.6-0.1-1.1-0.2-1.4c-0.1-0.3-0.3-0.4-0.6-0.4c-0.3,0-0.5,0.1-0.6,0.4C88.4,141.6,88.4,142.1,88.4,142.7z"/>
			<path id="XMLID_237_" class="st2" d="M95.2,142.7c0,0.9-0.2,1.6-0.5,2.1c-0.3,0.4-0.8,0.7-1.4,0.7s-1.1-0.2-1.4-0.7
				s-0.5-1.1-0.5-2s0.2-1.6,0.5-2.1c0.3-0.4,0.8-0.7,1.4-0.7s1.1,0.2,1.4,0.7S95.2,141.8,95.2,142.7z M92.6,142.7
				c0,0.6,0.1,1.1,0.2,1.4c0.1,0.3,0.3,0.4,0.6,0.4c0.3,0,0.4-0.1,0.6-0.4c0.1-0.3,0.2-0.7,0.2-1.4c0-0.6-0.1-1.1-0.2-1.4
				c-0.1-0.3-0.3-0.4-0.6-0.4c-0.3,0-0.5,0.1-0.6,0.4C92.6,141.6,92.6,142.1,92.6,142.7z"/>
			<path id="XMLID_235_" class="st2" d="M98.5,145.4h-1.1v-3.1v-0.5v-0.6c-0.2,0.2-0.3,0.3-0.4,0.4l-0.6,0.5l-0.5-0.7l1.7-1.4h0.9
				V145.4z"/>
			<path id="XMLID_232_" class="st2" d="M103.6,142.7c0,0.9-0.2,1.6-0.5,2.1c-0.3,0.4-0.8,0.7-1.4,0.7s-1.1-0.2-1.4-0.7
				s-0.5-1.1-0.5-2s0.2-1.6,0.5-2.1c0.3-0.4,0.8-0.7,1.4-0.7s1.1,0.2,1.4,0.7C103.5,141.2,103.6,141.8,103.6,142.7z M101,142.7
				c0,0.6,0.1,1.1,0.2,1.4c0.1,0.3,0.3,0.4,0.6,0.4c0.3,0,0.4-0.1,0.6-0.4c0.1-0.3,0.2-0.7,0.2-1.4c0-0.6-0.1-1.1-0.2-1.4
				c-0.1-0.3-0.3-0.4-0.6-0.4c-0.3,0-0.5,0.1-0.6,0.4C101.1,141.6,101,142.1,101,142.7z"/>
		</g>
	</g>
	<g id="XMLID_78_" class="st1">
		<g id="XMLID_63_">
			<path id="XMLID_64_" class="st2" d="M80.1,145.1c0,0.7,0.3,1.3,0.8,1.6s1.2,0.5,2.2,0.5v1.5c-1.6,0-2.9-0.3-3.8-1
				c-0.9-0.6-1.3-1.5-1.3-2.6v-3.3c0-0.8-0.3-1.3-0.8-1.6s-1.3-0.5-2.4-0.5v-1.6c1.1,0,1.9-0.2,2.4-0.5s0.8-0.9,0.8-1.6v-3.4
				c0-1.1,0.5-2,1.4-2.7c0.9-0.6,2.2-0.9,3.8-0.9v1.5c-2,0-3,0.8-3,2.2v3.2c0,1.6-1,2.5-2.9,2.8v0.1c1.9,0.3,2.9,1.2,2.9,2.8
				L80.1,145.1L80.1,145.1z"/>
		</g>
	</g>
	<g id="XMLID_54_" class="st1">
		<g id="XMLID_66_">
			<path id="XMLID_67_" class="st2" d="M106.7,132.9c0-0.7-0.3-1.3-0.8-1.6s-1.2-0.5-2.2-0.5v-1.5c1.6,0,2.9,0.3,3.8,1
				c0.9,0.6,1.3,1.5,1.3,2.6v3.3c0,0.8,0.3,1.3,0.8,1.6s1.3,0.5,2.4,0.5v1.6c-1.1,0-1.9,0.2-2.4,0.5s-0.8,0.9-0.8,1.6v3.4
				c0,1.1-0.5,2-1.4,2.7c-0.9,0.6-2.2,0.9-3.8,0.9v-1.5c2,0,3-0.8,3-2.2v-3.2c0-1.6,1-2.5,2.9-2.8v-0.1c-1.9-0.3-2.9-1.2-2.9-2.8
				L106.7,132.9L106.7,132.9z"/>
		</g>
	</g>
</g>
<g id="XMLID_61_" class="st0">
	<circle id="XMLID_43_" class="st3" cx="-125.1" cy="-147.2" r="3.6"/>
	<rect id="XMLID_42_" x="-126.7" y="-145.1" class="st3" width="3.1" height="7.7"/>
	<path id="XMLID_69_" class="st3" d="M-113.4-158c-0.5,0-0.9-0.4-1-0.8c-0.7-5.3-5.3-9.4-10.8-9.4s-10.1,4.1-10.8,9.4
		c-0.1,0.5-0.5,0.8-1,0.8h-2.4c-0.5,0-1,0.4-1,1v25.9c0,0.5,0.4,1,1,1h27.3c0.5,0,1-0.4,1-1V-157c0-0.5-0.4-1-1-1H-113.4z
		 M-125.1-166.3c4.2,0,7.7,3.1,8.5,7.1c0.1,0.6-0.3,1.2-0.9,1.2h-15.2c-0.6,0-1.1-0.6-0.9-1.2C-132.8-163.1-129.3-166.3-125.1-166.3
		z M-113.9-132.2h-23.4c-0.5,0-1-0.4-1-1v-22c0-0.5,0.4-1,1-1h23.4c0.5,0,1,0.4,1,1v22C-112.9-132.6-113.4-132.2-113.9-132.2z"/>
</g>
<path id="XMLID_44_" class="st4" d="M-16.4-102.5l-22.8,24.9l-0.7-1.3v-0.3l-15.5-13.6l5.7-6.6l10.5,10.9l22.7-23.8H-62
	c-0.1,6-0.2,15.6-0.2,21.3l0,0c0,0-0.8,9.4,5.2,15.2c0,0,10.5,8.5,17.5,11.5h0.4c7.1-3,15.1-9.1,15.1-9.1c6-5.8,7-12.9,7-12.9l0,0
	C-16.6-90.2-16.4-97.2-16.4-102.5z"/>
<circle id="XMLID_55_" class="st4" cx="-127" cy="-69.1" r="3.8"/>
<circle id="XMLID_51_" class="st4" cx="-96.5" cy="-53" r="3.8"/>
<circle id="XMLID_50_" class="st4" cx="-131.3" cy="-35.2" r="3.8"/>
<line id="XMLID_49_" class="st5" x1="-119.4" y1="-47.5" x2="-96.3" y2="-53"/>
<line id="XMLID_48_" class="st5" x1="-119.6" y1="-47.7" x2="-126.6" y2="-68.3"/>
<line id="XMLID_47_" class="st5" x1="-131.1" y1="-35.4" x2="-118.8" y2="-47.3"/>
<circle id="XMLID_46_" class="st6" cx="-119" cy="-47.5" r="10"/>
<circle id="XMLID_45_" class="st4" cx="-119" cy="-47.5" r="6.4"/>
<path class="st7" d="M182.3,77.5h-17.6H163V52.9h-1.8c-6.8,0-12.4-5.6-12.4-12.4v-9.7c0-3.3,2.7-6,6-6c3.3,0,6,2.7,6,6v9.7
	c0,0.2,0.1,0.3,0.3,0.3h1.8l0-30.4c0-2.8,1.1-5.4,3.1-7.4c2-2,4.6-3.1,7.4-3.1c2.8,0,5.4,1.1,7.4,3.1c2,2,3.1,4.6,3.1,7.4v19.7h1.8
	c0.2,0,0.3-0.1,0.3-0.3v-9.7c0-3.3,2.7-6,6-6c3.3,0,6,2.7,6,6v9.7c0,6.8-5.6,12.4-12.4,12.4h-1.8v35.3H182.3z"/>
<path class="st8" d="M154.8,26.3c-2.5,0-4.5,2-4.5,4.5v9.7c0,6,4.9,10.9,10.9,10.9h3.3v24.5c0,0.1,0.1,1.6,0.1,1.6h17.6
	c0.1,0,0.1-1.6,0.1-1.6V40.7h3.3c6,0,10.9-4.9,10.9-10.9v-9.7c0-2.5-2-4.5-4.5-4.5c-2.5,0-4.5,2-4.5,4.5v9.7c0,1-0.8,1.8-1.8,1.8
	h-3.3V10.4c0-2.4-0.9-4.6-2.6-6.3c-1.7-1.7-3.9-2.6-6.3-2.6c-2.4,0-4.6,0.9-6.3,2.6c-1.7,1.7-2.6,3.9-2.6,6.3l0,31.9h-3.3
	c-1,0-1.8-0.8-1.8-1.8v-9.7C159.4,28.3,157.3,26.3,154.8,26.3z"/>
<path class="st7" d="M17.5,77.5H8.5H7.3V64.9H6.7c-3.7,0-6.7-3-6.7-6.7v-5c0-1.9,1.6-3.5,3.5-3.5s3.5,1.6,3.5,3.5V58h0.4l0-15.3
	c0-1.5,0.6-3,1.7-4c1.1-1.1,2.5-1.7,4-1.7c1.5,0,3,0.6,4,1.7c1.1,1.1,1.7,2.5,1.7,4v9.8h0.4v-4.8c0-1.9,1.6-3.5,3.5-3.5
	c1.9,0,3.5,1.6,3.5,3.5v5c0,3.7-3,6.7-6.7,6.7h-0.6v18.1H17.5z"/>
<path class="st8" d="M8.8,77.5h8.4V57.9h2.1c2.9,0,5.2-2.3,5.2-5.2v-5c0-1.1-0.9-2-2-2c-1.1,0-2,0.9-2,2v5c0,0.7-0.6,1.3-1.3,1.3
	h-2.1V42.7c0-1.1-0.4-2.2-1.2-3s-1.9-1.2-3-1.2c-1.1,0-2.2,0.4-3,1.2c-0.8,0.8-1.2,1.9-1.2,3l0,16.8H6.7c-0.7,0-1.3-0.6-1.3-1.3v-5
	c0-1.1-0.9-2-2-2c-1.1,0-2,0.9-2,2v5c0,2.9,2.3,5.2,5.2,5.2h2.1V77.5z"/>
<path class="st7" d="M401.9,77.5h-9.1h-1.2V64.9h-0.6c-3.7,0-6.7-3-6.7-6.7v-5c0-1.9,1.6-3.5,3.5-3.5s3.5,1.6,3.5,3.5V58h0.4l0-15.3
	c0-1.5,0.6-3,1.7-4c1.1-1.1,2.5-1.7,4-1.7c1.5,0,3,0.6,4,1.7c1.1,1.1,1.7,2.5,1.7,4v9.8h0.4v-4.8c0-1.9,1.6-3.5,3.5-3.5
	c1.9,0,3.5,1.6,3.5,3.5v5c0,3.7-3,6.7-6.7,6.7h-0.6v18.1H401.9z"/>
<path class="st8" d="M393.1,77.5h8.4V57.9h2.1c2.9,0,5.2-2.3,5.2-5.2v-5c0-1.1-0.9-2-2-2c-1.1,0-2,0.9-2,2v5c0,0.7-0.6,1.3-1.3,1.3
	h-2.1V42.7c0-1.1-0.4-2.2-1.2-3s-1.9-1.2-3-1.2c-1.1,0-2.2,0.4-3,1.2c-0.8,0.8-1.2,1.9-1.2,3l0,16.8h-2.1c-0.7,0-1.3-0.6-1.3-1.3v-5
	c0-1.1-0.9-2-2-2c-1.1,0-2,0.9-2,2v5c0,2.9,2.3,5.2,5.2,5.2h2.1V77.5z"/>
<path class="st7" d="M279.7,77.5h-9.1h-1.2V64.9h-0.6c-3.7,0-6.7-3-6.7-6.7v-5c0-1.9,1.6-3.5,3.5-3.5c1.9,0,3.5,1.6,3.5,3.5V58h0.4
	l0-15.3c0-1.5,0.6-3,1.7-4c1.1-1.1,2.5-1.7,4-1.7c1.5,0,3,0.6,4,1.7c1.1,1.1,1.7,2.5,1.7,4v9.8h0.4v-4.8c0-1.9,1.6-3.5,3.5-3.5
	c1.9,0,3.5,1.6,3.5,3.5v5c0,3.7-3,6.7-6.7,6.7h-0.6v18.1H279.7z"/>
<path class="st8" d="M270.9,77.5h8.4V57.9h2.1c2.9,0,5.2-2.3,5.2-5.2v-5c0-1.1-0.9-2-2-2c-1.1,0-2,0.9-2,2v5c0,0.7-0.6,1.3-1.3,1.3
	h-2.1V42.7c0-1.1-0.4-2.2-1.2-3s-1.9-1.2-3-1.2c-1.1,0-2.2,0.4-3,1.2c-0.8,0.8-1.2,1.9-1.2,3l0,16.8h-2.1c-0.7,0-1.3-0.6-1.3-1.3v-5
	c0-1.1-0.9-2-2-2c-1.1,0-2,0.9-2,2v5c0,2.9,2.3,5.2,5.2,5.2h2.1V77.5z"/>
<path class="st7" d="M317,77.5h-13.5h-1.4V50.6h-1.2c-5.3,0-9.6-4.3-9.6-9.6v-7.4c0-2.6,2.1-4.8,4.8-4.8s4.8,2.1,4.8,4.8v7.4
	c0,0,0,0.1,0.1,0.1h1.2V26.1c0-2.2,0.8-4.2,2.4-5.8c1.5-1.5,3.6-2.4,5.8-2.4c2.2,0,4.2,0.8,5.8,2.4c1.5,1.5,2.4,3.6,2.4,5.8l0,23.1
	h1.2c0,0,0.1,0,0.1-0.1v-7.4c0-2.6,2.1-4.8,4.8-4.8c2.6,0,4.8,2.1,4.8,4.8v7.4c0,5.3-4.3,9.6-9.6,9.6h-1.2v18.8H317z"/>
<path class="st8" d="M303.6,77.5h13.3V57.2h2.7c4.5,0,8.1-3.6,8.1-8.1v-7.4c0-1.8-1.5-3.3-3.3-3.3c-1.8,0-3.3,1.5-3.3,3.3v7.4
	c0,0.9-0.7,1.6-1.6,1.6h-2.7l0-24.6c0-1.8-0.7-3.4-1.9-4.7c-1.3-1.3-2.9-1.9-4.7-1.9c-1.8,0-3.4,0.7-4.7,1.9
	c-1.3,1.3-1.9,2.9-1.9,4.7v16.4h-2.7c-0.9,0-1.6-0.7-1.6-1.6v-7.4c0-1.8-1.5-3.3-3.3-3.3s-3.3,1.5-3.3,3.3v7.4
	c0,4.5,3.6,8.1,8.1,8.1h2.7V77.5z"/>
<path class="st7" d="M115.3,77.5h-13.5h-1.4V50.6h-1.2c-5.3,0-9.6-4.3-9.6-9.6v-7.4c0-2.6,2.1-4.8,4.8-4.8s4.8,2.1,4.8,4.8v7.4
	c0,0,0,0.1,0.1,0.1h1.2V26.1c0-2.2,0.8-4.2,2.4-5.8c1.5-1.5,3.6-2.4,5.8-2.4c2.2,0,4.2,0.8,5.8,2.4c1.5,1.5,2.4,3.6,2.4,5.8l0,23.1
	h1.2c0,0,0.1,0,0.1-0.1v-7.4c0-2.6,2.1-4.8,4.8-4.8c2.6,0,4.8,2.1,4.8,4.8v7.4c0,5.3-4.3,9.6-9.6,9.6h-1.2v18.8H115.3z"/>
<path class="st8" d="M102,77.5h13.3V57.2h2.7c4.5,0,8.1-3.6,8.1-8.1v-7.4c0-1.8-1.5-3.3-3.3-3.3c-1.8,0-3.3,1.5-3.3,3.3v7.4
	c0,0.9-0.7,1.6-1.6,1.6h-2.7l0-24.6c0-1.8-0.7-3.4-1.9-4.7c-1.3-1.3-2.9-1.9-4.7-1.9c-1.8,0-3.4,0.7-4.7,1.9
	c-1.3,1.3-1.9,2.9-1.9,4.7v16.4h-2.7c-0.9,0-1.6-0.7-1.6-1.6v-7.4c0-1.8-1.5-3.3-3.3-3.3s-3.3,1.5-3.3,3.3v7.4
	c0,4.5,3.6,8.1,8.1,8.1h2.7V77.5z"/>
</svg>
