<?xml version="1.0" encoding="utf-8"?>
<!-- Generator: Adobe Illustrator 21.1.0, SVG Export Plug-In . SVG Version: 6.00 Build 0)  -->
<svg version="1.1" id="Layer_1" xmlns="http://www.w3.org/2000/svg" xmlns:xlink="http://www.w3.org/1999/xlink" x="0px" y="0px"
	 viewBox="0 0 107.5 33.5" style="enable-background:new 0 0 107.5 33.5;" xml:space="preserve">
<style type="text/css">
	.st0{fill:#FFFFFF;}
	.st1{fill:#D0D2D3;}
</style>
<g id="XMLID_107_">
	<path class="st0" d="M67.9,32.8c-0.4-5-4.6-8.9-9.7-8.9c-2,0-3.8,0.6-5.3,1.6c0-0.4,0.1-0.9,0.1-1.3c0-9.1-7.3-16.4-16.4-16.4
		c-8.4,0-15.4,6.4-16.3,14.5c-1.7-0.8-3.6-1.2-5.7-1.2c-6.9,0-12.6,5.1-13.7,11.7H67.9z"/>
	<path class="st1" d="M68.7,33.5H0l0.1-0.9c1.1-7.1,7.2-12.3,14.5-12.3c1.7,0,3.4,0.3,5.1,0.9C21,13.1,28.1,7,36.5,7
		c9.5,0,17.1,7.7,17.1,17.1c0,0,0,0,0,0c1.4-0.7,3-1,4.5-1c5.4,0,10,4.2,10.4,9.6L68.7,33.5z M1.8,32H67c-0.8-4.2-4.5-7.4-8.8-7.4
		c-1.8,0-3.5,0.5-4.9,1.5L52,26.9l0.1-1.5c0-0.4,0.1-0.8,0.1-1.3c0-8.6-7-15.6-15.6-15.6c-8,0-14.6,6-15.5,13.9l-0.1,1L19.9,23
		c-1.7-0.8-3.5-1.1-5.4-1.1C8.4,21.8,3.2,26.1,1.8,32z"/>
</g>
<g id="XMLID_1_">
	<path class="st0" d="M106.6,32.8c-0.5-6.4-5.9-11.4-12.4-11.4c-2.5,0-4.9,0.8-6.8,2c0-0.6,0.1-1.1,0.1-1.7c0-11.6-9.4-21-21-21
		c-10.8,0-19.7,8.1-20.8,18.6c-2.2-1-4.7-1.5-7.2-1.5c-8.8,0-16.2,6.5-17.5,14.9H106.6z"/>
	<path class="st1" d="M107.5,33.5H20l0.1-0.9c1.5-9,9.1-15.6,18.3-15.6c2.3,0,4.5,0.4,6.6,1.2C46.7,7.8,55.8,0,66.5,0
		c12,0,21.7,9.7,21.7,21.7c0,0.1,0,0.2,0,0.3c1.9-1,3.9-1.5,6-1.5c6.8,0,12.6,5.3,13.1,12.1L107.5,33.5z M21.8,32h84
		c-0.9-5.6-5.8-9.9-11.5-9.9c-2.3,0-4.5,0.7-6.4,1.9l-1.3,0.8l0.1-1.5c0-0.6,0.1-1.1,0.1-1.6c0-11.2-9.1-20.2-20.2-20.2
		c-10.3,0-18.9,7.7-20.1,17.9l-0.1,1L45.4,20c-2.2-1-4.5-1.5-6.9-1.5C30.3,18.6,23.5,24.2,21.8,32z"/>
</g>
</svg>
