<?xml version="1.0" encoding="utf-8"?>
<!-- Generator: Adobe Illustrator 21.1.0, SVG Export Plug-In . SVG Version: 6.00 Build 0)  -->
<svg version="1.1" id="Layer_1" xmlns="http://www.w3.org/2000/svg" xmlns:xlink="http://www.w3.org/1999/xlink" x="0px" y="0px"
	 viewBox="0 0 558.5 159" style="enable-background:new 0 0 558.5 159;" xml:space="preserve">
<style type="text/css">
	.st0{fill:#FFFFFF;}
	.st1{fill:#D0D2D3;}
	.st2{fill:#BBBDBF;}
</style>
<polygon class="st0" points="524.8,128.6 524.8,134 521,134 521,140.1 524.8,140.1 524.8,154.4 538,154.4 538,128.6 "/>
<polygon class="st0" points="411.9,94 411.9,99.1 415.2,99.1 415.2,158.1 503.8,158.1 503.8,99.1 507.8,99.1 507.8,94 "/>
<rect x="491.9" y="82" class="st0" width="65.8" height="5"/>
<path class="st0" d="M365.2,157.5h-88V32l7.5-0.8v-7.8h19.1c0,0,4-8.5,16.9-8.5s16.9,7.6,16.9,7.6l19.1,0.4v8.2h9.1L365.2,157.5z"/>
<polygon class="st0" points="33.4,158.1 126.1,158.1 126.1,97.1 129.8,97.1 129.8,89.8 109.8,89.8 109.8,79.8 112,79.8 112.7,79.2 
	112.7,76 98.8,76 98.8,79.8 101.9,79.8 101.9,90.1 29.8,89.8 29.8,96.8 33.3,97.3 "/>
<circle class="st0" cx="545.8" cy="65" r="10"/>
<circle class="st0" cx="391.2" cy="135.5" r="10.4"/>
<circle class="st0" cx="153.8" cy="125" r="14.1"/>
<circle class="st0" cx="11.2" cy="135.5" r="10.6"/>
<g id="XMLID_187_">
	<path class="st1" d="M357.5,30.8H284v-8.5h73.5V30.8z M285.5,29.2H356v-5.5h-70.5V29.2z"/>
</g>
<g id="XMLID_185_">
	<rect x="295.8" y="23" class="st1" width="2" height="6"/>
</g>
<g id="XMLID_184_">
	<rect x="311.8" y="23" class="st1" width="2" height="6"/>
</g>
<g id="XMLID_183_">
	<rect x="327.8" y="23" class="st1" width="2" height="6"/>
</g>
<g id="XMLID_182_">
	<rect x="343.8" y="23" class="st1" width="2" height="6"/>
</g>
<g id="XMLID_179_">
	<rect x="426.8" y="150" class="st1" width="21" height="2"/>
</g>
<g id="XMLID_178_">
	<rect x="471.8" y="150" class="st1" width="21" height="2"/>
</g>
<g id="XMLID_177_">
	<path class="st1" d="M110.5,90.8H101V79.2h9.5V90.8z M102.5,89.2h6.5v-8.5h-6.5V89.2z"/>
</g>
<g id="XMLID_176_">
	<path class="st1" d="M113.5,80.8H98v-5.5h15.5V80.8z M99.5,79.2H112v-2.5H99.5V79.2z"/>
</g>
<g id="XMLID_172_">
	<rect x="105.8" y="83" class="st1" width="3" height="1"/>
</g>
<g id="XMLID_171_">
	<rect x="105.8" y="85" class="st1" width="3" height="1"/>
</g>
<g id="XMLID_170_">
	<path class="st1" d="M92.5,146.8H43v-34.5h49.5V146.8z M44.5,145.2H91v-31.5H44.5V145.2z"/>
</g>
<g id="XMLID_169_">
	<path class="st1" d="M537.2,140.6v16h-12v-16H537.2 M538.8,139.1h-15v19h15V139.1L538.8,139.1z"/>
</g>
<rect x="521.8" y="154.1" class="st0" width="19" height="4"/>
<path class="st1" d="M541.5,158.9H521v-5.5h20.5V158.9z M522.5,157.4H540v-2.5h-17.5V157.4z"/>
<g id="XMLID_163_">
	<path class="st2" d="M125.2,97.8v59.7h-91V97.8H125.2 M126.8,96.3h-94V159h94V96.3L126.8,96.3z"/>
</g>
<g id="XMLID_162_">
	<path class="st2" d="M130.5,97.8H29v-8.5h101.5V97.8z M30.5,96.2H129v-5.5H30.5V96.2z"/>
</g>
<g id="XMLID_158_">
	<path class="st1" d="M115.5,113.8H43v-8.5h72.5V113.8z M44.5,112.2H114v-5.5H44.5V112.2z"/>
</g>
<g id="XMLID_157_">
	<rect x="50.8" y="106" class="st1" width="2" height="6"/>
</g>
<g id="XMLID_156_">
	<rect x="58.8" y="106" class="st1" width="2" height="6"/>
</g>
<g id="XMLID_155_">
	<rect x="66.8" y="106" class="st1" width="2" height="6"/>
</g>
<g id="XMLID_151_">
	<rect x="74.8" y="106" class="st1" width="2" height="6"/>
</g>
<g id="XMLID_150_">
	<rect x="82.8" y="106" class="st1" width="2" height="6"/>
</g>
<g id="XMLID_149_">
	<rect x="90.8" y="106" class="st1" width="2" height="6"/>
</g>
<g id="XMLID_148_">
	<rect x="98.8" y="106" class="st1" width="2" height="6"/>
</g>
<g id="XMLID_144_">
	<rect x="106.8" y="106" class="st1" width="2" height="6"/>
</g>
<g id="XMLID_143_">
	<path class="st2" d="M115.5,158.8H91v-45.5h24.5V158.8z M92.5,157.2H114v-42.5H92.5V157.2z"/>
</g>
<g id="XMLID_142_">
	<path class="st2" d="M92.5,158.8H43v-45.5h49.5V158.8z M44.5,157.2H91v-42.5H44.5V157.2z"/>
</g>
<g id="XMLID_141_">
	<path class="st1" d="M108.2,123.5v11h-10v-11H108.2 M109.8,122h-13v14h13V122L109.8,122z"/>
</g>
<g id="XMLID_137_">
	<path class="st1" d="M101.2,138.5v12h-3v-12H101.2 M102.8,137h-6v15h6V137L102.8,137z"/>
</g>
<g id="XMLID_136_">
	<path class="st1" d="M108.2,138.5v12h-3v-12H108.2 M109.8,137h-6v15h6V137L109.8,137z"/>
</g>
<g id="XMLID_135_">
	<rect x="50.8" y="150" class="st1" width="35" height="2"/>
</g>
<g id="XMLID_134_">
	<path class="st0" d="M44.3,112c-0.3,0.6-0.5,1.3-0.5,2c0,2.2,1.8,4,3.9,4c2.2,0,3.9-1.8,3.9-4c0-0.7-0.2-1.4-0.5-2H44.3z"/>
	<path class="st1" d="M47.7,118.8c-2.6,0-4.7-2.1-4.7-4.8c0-0.8,0.2-1.6,0.6-2.4l0.2-0.4h7.7l0.2,0.4c0.4,0.7,0.6,1.5,0.6,2.4
		C52.4,116.6,50.3,118.8,47.7,118.8z M44.8,112.8c-0.2,0.4-0.3,0.8-0.3,1.2c0,1.8,1.4,3.2,3.2,3.2s3.2-1.5,3.2-3.2
		c0-0.4-0.1-0.8-0.3-1.2H44.8z"/>
</g>
<g id="XMLID_130_">
	<path class="st0" d="M52.2,112c-0.3,0.6-0.5,1.3-0.5,2c0,2.2,1.8,4,3.9,4c2.2,0,3.9-1.8,3.9-4c0-0.7-0.2-1.4-0.5-2H52.2z"/>
	<path class="st1" d="M55.6,118.8c-2.6,0-4.7-2.1-4.7-4.8c0-0.8,0.2-1.6,0.6-2.4l0.2-0.4h7.7l0.2,0.4c0.4,0.7,0.6,1.5,0.6,2.4
		C60.3,116.6,58.2,118.8,55.6,118.8z M52.6,112.8c-0.2,0.4-0.3,0.8-0.3,1.2c0,1.8,1.4,3.2,3.2,3.2c1.8,0,3.2-1.5,3.2-3.2
		c0-0.4-0.1-0.8-0.3-1.2H52.6z"/>
</g>
<g id="XMLID_129_">
	<path class="st0" d="M60.1,112c-0.3,0.6-0.5,1.3-0.5,2c0,2.2,1.8,4,3.9,4s3.9-1.8,3.9-4c0-0.7-0.2-1.4-0.5-2H60.1z"/>
	<path class="st1" d="M63.5,118.8c-2.6,0-4.7-2.1-4.7-4.8c0-0.8,0.2-1.6,0.6-2.4l0.2-0.4h7.7l0.2,0.4c0.4,0.7,0.6,1.5,0.6,2.4
		C68.2,116.6,66.1,118.8,63.5,118.8z M60.5,112.8c-0.2,0.4-0.3,0.8-0.3,1.2c0,1.8,1.4,3.2,3.2,3.2s3.2-1.5,3.2-3.2
		c0-0.4-0.1-0.8-0.3-1.2H60.5z"/>
</g>
<g id="XMLID_128_">
	<path class="st0" d="M68,112c-0.3,0.6-0.5,1.3-0.5,2c0,2.2,1.8,4,3.9,4c2.2,0,3.9-1.8,3.9-4c0-0.7-0.2-1.4-0.5-2H68z"/>
	<path class="st1" d="M71.4,118.8c-2.6,0-4.7-2.1-4.7-4.8c0-0.8,0.2-1.6,0.6-2.4l0.2-0.4h7.7l0.2,0.4c0.4,0.7,0.6,1.5,0.6,2.4
		C76.1,116.6,73.9,118.8,71.4,118.8z M68.4,112.8c-0.2,0.4-0.3,0.8-0.3,1.2c0,1.8,1.4,3.2,3.2,3.2c1.8,0,3.2-1.5,3.2-3.2
		c0-0.4-0.1-0.8-0.3-1.2H68.4z"/>
</g>
<g id="XMLID_127_">
	<path class="st0" d="M75.9,112c-0.3,0.6-0.5,1.3-0.5,2c0,2.2,1.8,4,3.9,4s3.9-1.8,3.9-4c0-0.7-0.2-1.4-0.5-2H75.9z"/>
	<path class="st1" d="M79.2,118.8c-2.6,0-4.7-2.1-4.7-4.8c0-0.8,0.2-1.6,0.6-2.4l0.2-0.4h7.7l0.2,0.4c0.4,0.7,0.6,1.5,0.6,2.4
		C83.9,116.6,81.8,118.8,79.2,118.8z M76.3,112.8c-0.2,0.4-0.3,0.8-0.3,1.2c0,1.8,1.4,3.2,3.2,3.2s3.2-1.5,3.2-3.2
		c0-0.4-0.1-0.8-0.3-1.2H76.3z"/>
</g>
<g id="XMLID_124_">
	<path class="st0" d="M83.7,112c-0.3,0.6-0.5,1.3-0.5,2c0,2.2,1.8,4,3.9,4c2.2,0,3.9-1.8,3.9-4c0-0.7-0.2-1.4-0.5-2H83.7z"/>
	<path class="st1" d="M87.1,118.8c-2.6,0-4.7-2.1-4.7-4.8c0-0.8,0.2-1.6,0.6-2.4l0.2-0.4H91l0.2,0.4c0.4,0.7,0.6,1.5,0.6,2.4
		C91.8,116.6,89.7,118.8,87.1,118.8z M84.2,112.8c-0.2,0.4-0.3,0.8-0.3,1.2c0,1.8,1.4,3.2,3.2,3.2c1.8,0,3.2-1.5,3.2-3.2
		c0-0.4-0.1-0.8-0.3-1.2H84.2z"/>
</g>
<g id="XMLID_123_">
	<path class="st0" d="M91.6,112c-0.3,0.6-0.5,1.3-0.5,2c0,2.2,1.8,4,3.9,4s3.9-1.8,3.9-4c0-0.7-0.2-1.4-0.5-2H91.6z"/>
	<path class="st1" d="M95,118.8c-2.6,0-4.7-2.1-4.7-4.8c0-0.8,0.2-1.6,0.6-2.4l0.2-0.4h7.7l0.2,0.4c0.4,0.7,0.6,1.5,0.6,2.4
		C99.7,116.6,97.6,118.8,95,118.8z M92.1,112.8c-0.2,0.4-0.3,0.8-0.3,1.2c0,1.8,1.4,3.2,3.2,3.2s3.2-1.5,3.2-3.2
		c0-0.4-0.1-0.8-0.3-1.2H92.1z"/>
</g>
<g id="XMLID_122_">
	<path class="st0" d="M99.5,112c-0.3,0.6-0.5,1.3-0.5,2c0,2.2,1.8,4,3.9,4c2.2,0,3.9-1.8,3.9-4c0-0.7-0.2-1.4-0.5-2H99.5z"/>
	<path class="st1" d="M102.9,118.8c-2.6,0-4.7-2.1-4.7-4.8c0-0.8,0.2-1.6,0.6-2.4l0.2-0.4h7.7l0.2,0.4c0.4,0.7,0.6,1.5,0.6,2.4
		C107.6,116.6,105.5,118.8,102.9,118.8z M100,112.8c-0.2,0.4-0.3,0.8-0.3,1.2c0,1.8,1.4,3.2,3.2,3.2c1.8,0,3.2-1.5,3.2-3.2
		c0-0.4-0.1-0.8-0.3-1.2H100z"/>
</g>
<g id="XMLID_121_">
	<path class="st0" d="M107.4,112c-0.3,0.6-0.5,1.3-0.5,2c0,2.2,1.8,4,3.9,4c2.2,0,3.9-1.8,3.9-4c0-0.7-0.2-1.4-0.5-2H107.4z"/>
	<path class="st1" d="M110.8,118.8c-2.6,0-4.7-2.1-4.7-4.8c0-0.8,0.2-1.6,0.6-2.4l0.2-0.4h7.7l0.2,0.4c0.4,0.7,0.6,1.5,0.6,2.4
		C115.5,116.6,113.4,118.8,110.8,118.8z M107.9,112.8c-0.2,0.4-0.3,0.8-0.3,1.2c0,1.8,1.4,3.2,3.2,3.2s3.2-1.5,3.2-3.2
		c0-0.4-0.1-0.8-0.3-1.2H107.9z"/>
</g>
<g id="XMLID_116_">
	<rect x="51.8" y="126" class="st2" width="33" height="13"/>
</g>
<g id="XMLID_115_">
	<path class="st0" d="M60.9,134.6c0,0.8-0.3,1.4-0.8,1.8s-1.3,0.7-2.3,0.7c-0.9,0-1.7-0.2-2.4-0.5v-1.7c0.6,0.3,1.1,0.4,1.5,0.5
		s0.8,0.2,1.1,0.2c0.4,0,0.7-0.1,0.9-0.2s0.3-0.4,0.3-0.7c0-0.2,0-0.3-0.1-0.4s-0.2-0.3-0.4-0.4s-0.6-0.3-1.1-0.6
		c-0.5-0.2-0.9-0.5-1.2-0.7s-0.5-0.5-0.6-0.8s-0.2-0.7-0.2-1.1c0-0.8,0.3-1.4,0.8-1.8s1.2-0.7,2.1-0.7c0.4,0,0.9,0.1,1.3,0.2
		s0.8,0.3,1.3,0.4l-0.6,1.4c-0.5-0.2-0.8-0.3-1.1-0.4s-0.6-0.1-0.9-0.1c-0.3,0-0.6,0.1-0.8,0.2s-0.3,0.4-0.3,0.6
		c0,0.2,0,0.3,0.1,0.4s0.2,0.2,0.4,0.3s0.5,0.3,1.2,0.6c0.8,0.4,1.3,0.8,1.6,1.2S60.9,134.1,60.9,134.6z"/>
	<path class="st0" d="M67.9,137l-0.6-2h-3.1l-0.6,2h-2l3-8.6h2.2l3,8.6H67.9z M66.9,133.4c-0.6-1.8-0.9-2.9-1-3.1s-0.1-0.4-0.2-0.6
		c-0.1,0.5-0.5,1.7-1.1,3.7H66.9z"/>
	<path class="st0" d="M70.7,137v-8.6h1.8v7.1H76v1.5H70.7z"/>
	<path class="st0" d="M81.7,137h-4.9v-8.6h4.9v1.5h-3.1v1.9h2.9v1.5h-2.9v2.2h3.1V137z"/>
</g>
<g id="XMLID_114_">
	<path class="st2" d="M503.2,99.8v57.7h-87V99.8H503.2 M504.8,98.3h-90V159h90V98.3L504.8,98.3z"/>
</g>
<g id="XMLID_113_">
	<path class="st2" d="M365.2,32v125.5h-88V32H365.2 M366.8,30.5h-91V159h91V30.5L366.8,30.5z"/>
</g>
<g id="XMLID_98_">
	<path class="st2" d="M508.5,99.8H411v-6.5h97.5V99.8z M412.5,98.2H507v-3.5h-94.5V98.2z"/>
</g>
<g id="XMLID_97_">
	<path class="st2" d="M558.5,87.8H491v-6.5h67.5V87.8z M492.5,86.2H557v-3.5h-64.5V86.2z"/>
</g>
<g id="XMLID_96_">
	<path class="st1" d="M496.5,112.8H423v-8.5h73.5V112.8z M424.5,111.2H495v-5.5h-70.5V111.2z"/>
</g>
<g id="XMLID_94_">
	<rect x="434.8" y="105" class="st1" width="2" height="7"/>
</g>
<g id="XMLID_93_">
	<rect x="450.8" y="105" class="st1" width="2" height="7"/>
</g>
<g id="XMLID_92_">
	<rect x="466.8" y="105" class="st1" width="2" height="7"/>
</g>
<g id="XMLID_90_">
	<rect x="482.8" y="105" class="st1" width="2" height="7"/>
</g>
<g id="XMLID_89_">
	<path class="st2" d="M472.5,158.8H448v-44.5h24.5V158.8z M449.5,157.2H471v-41.5h-21.5V157.2z"/>
</g>
<g id="XMLID_88_">
	<path class="st2" d="M495.5,158.8H424v-44.5h71.5V158.8z M425.5,157.2H494v-41.5h-68.5V157.2z"/>
</g>
<g id="XMLID_86_">
	<path class="st1" d="M465.2,119.5v18h-10v-18H465.2 M466.8,118h-13v21h13V118L466.8,118z"/>
</g>
<g id="XMLID_85_">
	<path class="st1" d="M537.2,129.6v10h-12v-10H537.2 M538.8,128.1h-15v13h15V128.1L538.8,128.1z"/>
</g>
<g id="XMLID_84_">
	<path class="st1" d="M153.8,139.8c-8.1,0-14.8-6.6-14.8-14.8s6.6-14.8,14.8-14.8s14.8,6.6,14.8,14.8S161.9,139.8,153.8,139.8z
		 M153.8,111.8c-7.3,0-13.2,5.9-13.2,13.2s5.9,13.2,13.2,13.2S167,132.3,167,125S161.1,111.8,153.8,111.8z"/>
</g>
<g id="XMLID_83_">
	<path class="st1" d="M303.9,23.5l-1.1-1c4.5-5.2,11.1-8.3,18-8.3c6.9,0,13.5,3,18,8.3l-1.1,1c-4.2-4.9-10.4-7.7-16.9-7.7
		C314.3,15.8,308.1,18.6,303.9,23.5z"/>
</g>
<g id="XMLID_82_">
	<rect x="152" y="129" class="st2" width="2.5" height="30"/>
</g>
<g id="XMLID_81_">
	<path class="st1" d="M11.2,146.8c-6.2,0-11.2-5-11.2-11.2s5-11.2,11.2-11.2s11.2,5,11.2,11.2S17.5,146.8,11.2,146.8z M11.2,125.8
		c-5.4,0-9.8,4.4-9.8,9.8s4.4,9.8,9.8,9.8s9.8-4.4,9.8-9.8S16.6,125.8,11.2,125.8z"/>
</g>
<g id="XMLID_80_">
	<rect x="10" y="136" class="st2" width="2.5" height="23"/>
</g>
<g id="XMLID_79_">
	<path class="st1" d="M391.2,146.8c-6.2,0-11.2-5-11.2-11.2s5-11.2,11.2-11.2s11.2,5,11.2,11.2S397.5,146.8,391.2,146.8z
		 M391.2,125.8c-5.4,0-9.8,4.4-9.8,9.8s4.4,9.8,9.8,9.8s9.8-4.4,9.8-9.8S396.6,125.8,391.2,125.8z"/>
</g>
<g id="XMLID_78_">
	<rect x="390" y="136" class="st2" width="2.5" height="23"/>
</g>
<g id="XMLID_77_">
	<rect x="462.8" y="132" class="st1" width="3" height="2"/>
</g>
<g id="XMLID_76_">
	<rect x="498.8" y="87" class="st2" width="3" height="7"/>
</g>
<g id="XMLID_75_">
	<rect x="544.5" y="87" class="st2" width="2.5" height="72"/>
</g>
<g id="XMLID_73_">
	<path class="st1" d="M545.8,75.8c-5.9,0-10.8-4.8-10.8-10.8s4.8-10.8,10.8-10.8s10.8,4.8,10.8,10.8S551.7,75.8,545.8,75.8z
		 M545.8,55.8c-5.1,0-9.2,4.1-9.2,9.2s4.1,9.2,9.2,9.2s9.2-4.1,9.2-9.2S550.9,55.8,545.8,55.8z"/>
</g>
<g id="XMLID_72_">
	<rect x="527.8" y="132.1" class="st2" width="7" height="5"/>
</g>
<g id="XMLID_71_">
	<rect x="527.8" y="143.1" class="st1" width="7" height="2"/>
</g>
<g id="XMLID_70_">
	<path class="st1" d="M525.5,140.9H520v-7.5h5.5V140.9z M521.5,139.4h2.5v-4.5h-2.5V139.4z"/>
</g>
<g id="XMLID_69_">
	<path class="st1" d="M523,149.9c-3.8,0-7-3.1-7-7c0-2.9,1.8-5.5,4.5-6.5l0.5,1.4c-2.1,0.8-3.5,2.9-3.5,5.1c0,3,2.5,5.5,5.5,5.5
		c0.5,0,1.1-0.1,1.6-0.2l0.4,1.4C524.3,149.8,523.7,149.9,523,149.9z"/>
</g>
<g id="XMLID_68_">
	<polygon class="st1" points="458.5,126 457,126 457,121.2 460.8,121.2 460.8,122.8 458.5,122.8 	"/>
</g>
<g id="XMLID_67_">
	<path class="st1" d="M441.1,136.8c-3.3,0-5.9-1-7.9-3c-5.1-5-4.2-14.5-4.1-14.9l1.5,0.1c0,0.1-0.8,9.1,3.7,13.7
		c2,2,4.9,2.9,8.5,2.5l0.2,1.5C442.2,136.8,441.7,136.8,441.1,136.8z"/>
</g>
<g id="XMLID_66_">
	<path class="st1" d="M313.4,57.8c-1.5,0-2.7-0.5-3.6-1.4c-2.2-2.2-1.9-6.4-1.8-6.5l1.5,0.1c0,0-0.3,3.6,1.4,5.3
		c0.8,0.8,1.8,1,3.2,0.9l0.2,1.5C313.9,57.8,313.7,57.8,313.4,57.8z"/>
</g>
<g id="XMLID_65_">
	<path class="st1" d="M488.1,136.8c-3.3,0-5.9-1-7.9-3c-5.1-5-4.2-14.5-4.1-14.9l1.5,0.1c0,0.1-0.8,9.1,3.7,13.7
		c2,2,4.9,2.9,8.5,2.5l0.2,1.5C489.2,136.8,488.7,136.8,488.1,136.8z"/>
</g>
<g id="XMLID_64_">
	<polygon class="st1" points="101.5,130 100,130 100,125.2 103.8,125.2 103.8,126.8 101.5,126.8 	"/>
</g>
<g id="XMLID_63_">
	<path class="st2" d="M333.5,158.8H309v-45.5h24.5V158.8z M310.5,157.2H332v-42.5h-21.5V157.2z"/>
</g>
<g id="XMLID_62_">
	<path class="st1" d="M326.2,123.5v11h-10v-11H326.2 M327.8,122h-13v14h13V122L327.8,122z"/>
</g>
<g id="XMLID_61_">
	<path class="st1" d="M319.2,138.5v12h-3v-12H319.2 M320.8,137h-6v15h6V137L320.8,137z"/>
</g>
<g id="XMLID_60_">
	<path class="st1" d="M326.2,138.5v12h-3v-12H326.2 M327.8,137h-6v15h6V137L327.8,137z"/>
</g>
<g id="XMLID_59_">
	<polygon class="st1" points="319.5,130 318,130 318,125.2 321.8,125.2 321.8,126.8 319.5,126.8 	"/>
</g>
<g id="XMLID_58_">
	<path class="st1" d="M296.2,47.5v18h-10v-18H296.2 M297.8,46h-13v21h13V46L297.8,46z"/>
</g>
<g id="XMLID_57_">
	<polygon class="st1" points="289.5,54 288,54 288,49.2 291.8,49.2 291.8,50.8 289.5,50.8 	"/>
</g>
<g id="XMLID_56_">
	<rect x="282.8" y="65.5" class="st2" width="17" height="2"/>
</g>
<g id="XMLID_55_">
	<path class="st1" d="M316.2,47.5v18h-10v-18H316.2 M317.8,46h-13v21h13V46L317.8,46z"/>
</g>
<g id="XMLID_54_">
	<rect x="302.8" y="65.5" class="st2" width="17" height="2"/>
</g>
<g id="XMLID_53_">
	<path class="st1" d="M352.4,57.8c-1.5,0-2.7-0.5-3.6-1.4c-2.2-2.2-1.9-6.4-1.8-6.5l1.5,0.1c0,0-0.3,3.6,1.4,5.3
		c0.8,0.8,1.8,1,3.2,0.9l0.2,1.5C352.9,57.8,352.7,57.8,352.4,57.8z"/>
</g>
<g id="XMLID_52_">
	<path class="st1" d="M335.2,47.5v18h-10v-18H335.2 M336.8,46h-13v21h13V46L336.8,46z"/>
</g>
<g id="XMLID_51_">
	<polygon class="st1" points="328.5,54 327,54 327,49.2 330.8,49.2 330.8,50.8 328.5,50.8 	"/>
</g>
<g id="XMLID_50_">
	<rect x="321.8" y="65.5" class="st2" width="17" height="2"/>
</g>
<g id="XMLID_49_">
	<path class="st1" d="M355.2,47.5v18h-10v-18H355.2 M356.8,46h-13v21h13V46L356.8,46z"/>
</g>
<g id="XMLID_48_">
	<rect x="341.8" y="65.5" class="st2" width="17" height="2"/>
</g>
<g id="XMLID_47_">
	<path class="st1" d="M313.4,90.8c-1.5,0-2.7-0.5-3.6-1.4c-2.2-2.2-1.9-6.4-1.8-6.5l1.5,0.1c0,0-0.3,3.6,1.4,5.3
		c0.8,0.8,1.8,1,3.2,0.9l0.2,1.5C313.9,90.8,313.7,90.8,313.4,90.8z"/>
</g>
<g id="XMLID_46_">
	<path class="st1" d="M296.2,80.5v18h-10v-18H296.2 M297.8,79h-13v21h13V79L297.8,79z"/>
</g>
<g id="XMLID_45_">
	<polygon class="st1" points="289.5,87 288,87 288,82.2 291.8,82.2 291.8,83.8 289.5,83.8 	"/>
</g>
<g id="XMLID_44_">
	<rect x="282.8" y="98.5" class="st2" width="17" height="2"/>
</g>
<g id="XMLID_43_">
	<path class="st1" d="M316.2,80.5v18h-10v-18H316.2 M317.8,79h-13v21h13V79L317.8,79z"/>
</g>
<g id="XMLID_42_">
	<rect x="302.8" y="98.5" class="st2" width="17" height="2"/>
</g>
<g id="XMLID_41_">
	<path class="st1" d="M352.4,90.8c-1.5,0-2.7-0.5-3.6-1.4c-2.2-2.2-1.9-6.4-1.8-6.5l1.5,0.1c0,0-0.3,3.6,1.4,5.3
		c0.8,0.8,1.8,1,3.2,0.9l0.2,1.5C352.9,90.8,352.7,90.8,352.4,90.8z"/>
</g>
<g id="XMLID_40_">
	<path class="st1" d="M335.2,80.5v18h-10v-18H335.2 M336.8,79h-13v21h13V79L336.8,79z"/>
</g>
<g id="XMLID_39_">
	<polygon class="st1" points="328.5,87 327,87 327,82.2 330.8,82.2 330.8,83.8 328.5,83.8 	"/>
</g>
<g id="XMLID_38_">
	<rect x="321.8" y="98.5" class="st2" width="17" height="2"/>
</g>
<g id="XMLID_37_">
	<path class="st1" d="M355.2,80.5v18h-10v-18H355.2 M356.8,79h-13v21h13V79L356.8,79z"/>
</g>
<g id="XMLID_36_">
	<rect x="341.8" y="98.5" class="st2" width="17" height="2"/>
</g>
<g id="XMLID_35_">
	<path class="st1" d="M296.2,113.5v18h-10v-18H296.2 M297.8,112h-13v21h13V112L297.8,112z"/>
</g>
<g id="XMLID_34_">
	<polygon class="st1" points="289.5,120 288,120 288,115.2 291.8,115.2 291.8,116.8 289.5,116.8 	"/>
</g>
<g id="XMLID_33_">
	<rect x="282.8" y="131.5" class="st2" width="17" height="2"/>
</g>
<g id="XMLID_32_">
	<path class="st1" d="M352.4,123.8c-1.5,0-2.7-0.5-3.6-1.4c-2.2-2.2-1.9-6.4-1.8-6.5l1.5,0.1c0,0-0.3,3.6,1.4,5.3
		c0.8,0.8,1.8,1,3.2,0.9l0.2,1.5C352.9,123.8,352.7,123.8,352.4,123.8z"/>
</g>
<g id="XMLID_31_">
	<path class="st1" d="M355.2,113.5v18h-10v-18H355.2 M356.8,112h-13v21h13V112L356.8,112z"/>
</g>
<g id="XMLID_30_">
	<rect x="341.8" y="131.5" class="st2" width="17" height="2"/>
</g>
<g id="XMLID_1_">
	<rect x="320" class="st1" width="1.5" height="15"/>
</g>
<g id="XMLID_74_">
	<rect x="544.5" y="65" class="st2" width="2.5" height="17"/>
</g>
</svg>
