<?xml version="1.0" encoding="utf-8"?>
<!-- Generator: Adobe Illustrator 21.1.0, SVG Export Plug-In . SVG Version: 6.00 Build 0)  -->
<svg version="1.1" id="Layer_1" xmlns="http://www.w3.org/2000/svg" xmlns:xlink="http://www.w3.org/1999/xlink" x="0px" y="0px"
	 viewBox="0 0 63.5 37.5" style="enable-background:new 0 0 63.5 37.5;" xml:space="preserve">
<style type="text/css">
	.st0{fill:#FFFFFF;}
	.st1{fill:#D0D2D3;}
</style>
<g id="XMLID_2_">
	<g id="XMLID_106_">
		<polygon class="st0" points="14.8,3.8 6.8,15.8 0.8,18.8 0.8,29.8 19.8,29.8 62.8,29.8 62.8,3.8 		"/>
		<path class="st1" d="M62.8,30.5h-62c-0.4,0-0.8-0.3-0.8-0.8v-11c0-0.3,0.2-0.5,0.4-0.7l5.8-2.9l7.9-11.8C14.3,3.1,14.5,3,14.8,3
			h48c0.4,0,0.8,0.3,0.8,0.8v26C63.5,30.2,63.2,30.5,62.8,30.5z M1.5,29H62V4.5H15.2L7.4,16.2c-0.1,0.1-0.2,0.2-0.3,0.3l-5.6,2.8V29
			z"/>
	</g>
	<g id="XMLID_105_">
		<circle class="st0" cx="12.8" cy="31.8" r="5"/>
		<path class="st1" d="M12.8,37.5c-3.2,0-5.8-2.6-5.8-5.8S9.6,26,12.8,26s5.8,2.6,5.8,5.8S15.9,37.5,12.8,37.5z M12.8,27.5
			c-2.3,0-4.2,1.9-4.2,4.2s1.9,4.2,4.2,4.2s4.2-1.9,4.2-4.2S15.1,27.5,12.8,27.5z"/>
	</g>
	<g id="XMLID_104_">
		<circle class="st0" cx="52.8" cy="31.8" r="5"/>
		<path class="st1" d="M52.8,37.5c-3.2,0-5.8-2.6-5.8-5.8s2.6-5.8,5.8-5.8s5.8,2.6,5.8,5.8S55.9,37.5,52.8,37.5z M52.8,27.5
			c-2.3,0-4.2,1.9-4.2,4.2s1.9,4.2,4.2,4.2s4.2-1.9,4.2-4.2S55.1,27.5,52.8,27.5z"/>
	</g>
	<g id="XMLID_103_">
		<rect x="33.8" y="7.8" class="st0" width="22" height="15"/>
		<path class="st1" d="M55.8,23.5h-22c-0.4,0-0.8-0.3-0.8-0.8v-15C33,7.3,33.3,7,33.8,7h22c0.4,0,0.8,0.3,0.8,0.8v15
			C56.5,23.2,56.2,23.5,55.8,23.5z M34.5,22H55V8.5H34.5V22z"/>
	</g>
	<g id="XMLID_102_">
		<path class="st1" d="M56.5,12.5H33V7h23.5V12.5z M34.5,11H55V8.5H34.5V11z"/>
	</g>
	<g id="XMLID_101_">
		<rect x="47.8" y="8.8" class="st1" width="1.8" height="2"/>
	</g>
	<g id="XMLID_100_">
		<rect x="40.8" y="8.8" class="st1" width="1.8" height="2"/>
	</g>
	<g id="XMLID_99_">
		<path class="st0" d="M49.2,11.8c-0.3,0.3-0.5,0.6-0.5,1c0,1.1,1.6,2,3.5,2s3.5-0.9,3.5-2c0-0.4-0.2-0.7-0.5-1H49.2z"/>
		<path class="st1" d="M52.2,15.5c-2.4,0-4.2-1.2-4.2-2.8c0-0.5,0.2-1.1,0.7-1.5l0.2-0.2h6.6l0.2,0.2c0.5,0.5,0.7,1,0.7,1.5
			C56.5,14.3,54.6,15.5,52.2,15.5z M49.6,12.5c0,0.1-0.1,0.2-0.1,0.2c0,0.5,1.1,1.2,2.8,1.2s2.8-0.7,2.8-1.2c0-0.1,0-0.2-0.1-0.2
			H49.6z"/>
	</g>
	<g id="XMLID_95_">
		<path class="st0" d="M42.2,11.8c-0.3,0.3-0.5,0.6-0.5,1c0,1.1,1.6,2,3.5,2s3.5-0.9,3.5-2c0-0.4-0.2-0.7-0.5-1H42.2z"/>
		<path class="st1" d="M45.2,15.5c-2.4,0-4.2-1.2-4.2-2.8c0-0.5,0.2-1.1,0.7-1.5l0.2-0.2h6.6l0.2,0.2c0.5,0.5,0.7,1,0.7,1.5
			C49.5,14.3,47.6,15.5,45.2,15.5z M42.6,12.5c0,0.1-0.1,0.2-0.1,0.2c0,0.5,1.1,1.2,2.8,1.2s2.8-0.7,2.8-1.2c0-0.1,0-0.2-0.1-0.2
			H42.6z"/>
	</g>
	<g id="XMLID_91_">
		<path class="st0" d="M35.2,11.8c-0.3,0.3-0.5,0.6-0.5,1c0,1.1,1.6,2,3.5,2s3.5-0.9,3.5-2c0-0.4-0.2-0.7-0.5-1H35.2z"/>
		<path class="st1" d="M38.2,15.5c-2.4,0-4.2-1.2-4.2-2.8c0-0.5,0.2-1.1,0.7-1.5l0.2-0.2h6.6l0.2,0.2c0.5,0.5,0.7,1,0.7,1.5
			C42.5,14.3,40.6,15.5,38.2,15.5z M35.6,12.5c0,0.1-0.1,0.2-0.1,0.2c0,0.5,1.1,1.2,2.8,1.2s2.8-0.7,2.8-1.2c0-0.1,0-0.2-0.1-0.2
			H35.6z"/>
	</g>
	<g id="XMLID_87_">
		<rect x="34.8" y="19" class="st1" width="21" height="1.5"/>
	</g>
	<g id="XMLID_7_">
		<polygon class="st0" points="21.8,25.8 28.8,25.8 28.8,7.8 18.8,7.8 18.8,21.7 		"/>
		<path class="st1" d="M28.8,26.5h-7c-0.2,0-0.5-0.1-0.6-0.3l-3-4c-0.1-0.1-0.1-0.3-0.1-0.5v-14C18,7.3,18.3,7,18.8,7h10
			c0.4,0,0.8,0.3,0.8,0.8v18C29.5,26.2,29.2,26.5,28.8,26.5z M22.1,25H28V8.5h-8.5v13L22.1,25z"/>
	</g>
	<g id="XMLID_6_">
		<polygon class="st0" points="10.8,16.8 15.8,16.8 15.8,8.8 		"/>
		<path class="st1" d="M15.8,17.5h-5c-0.3,0-0.5-0.1-0.7-0.4c-0.1-0.2-0.1-0.5,0-0.8l5-8C15.3,8.1,15.6,7.9,16,8
			c0.3,0.1,0.5,0.4,0.5,0.7v8C16.5,17.2,16.2,17.5,15.8,17.5z M12.1,16H15v-4.6L12.1,16z"/>
	</g>
	<g id="XMLID_5_">
		<rect x="20.8" y="9.8" class="st1" width="6" height="7"/>
	</g>
	<g id="XMLID_4_">
		<rect x="19.8" y="18.8" class="st1" width="2" height="2"/>
	</g>
	<g id="XMLID_3_">
		<path class="st1" d="M57.5,4.5H23V0h34.5V4.5z M24.5,3H56V1.5H24.5V3z"/>
	</g>
</g>
</svg>
