<?xml version="1.0" encoding="utf-8"?>
<!-- Generator: Adobe Illustrator 21.1.0, SVG Export Plug-In . SVG Version: 6.00 Build 0)  -->
<svg version="1.1" id="Layer_1" xmlns="http://www.w3.org/2000/svg" xmlns:xlink="http://www.w3.org/1999/xlink" x="0px" y="0px"
	 viewBox="0 0 28.2 29.9" style="enable-background:new 0 0 28.2 29.9;" xml:space="preserve">
<style type="text/css">
	.st0{display:none;}
	.st1{display:inline;}
	.st2{fill:#D0D2D3;}
	.st3{display:inline;fill:#BBBDBF;}
	.st4{display:none;fill:#BBBDBF;}
	.st5{display:none;fill:none;stroke:#BBBDBF;stroke-width:2;stroke-miterlimit:10;}
	.st6{display:none;fill:#FFFFFF;stroke:#BBBDBF;stroke-width:3;stroke-miterlimit:10;}
	.st7{fill:#BBBDBF;}
</style>
<g id="XMLID_53_" class="st0">
	<g id="XMLID_85_" class="st1">
		<g id="XMLID_231_">
			<path id="XMLID_254_" class="st2" d="M-52.6,80.8c0,0.9-0.2,1.6-0.5,2.1c-0.3,0.4-0.8,0.7-1.4,0.7c-0.6,0-1.1-0.2-1.4-0.7
				c-0.3-0.5-0.5-1.1-0.5-2c0-0.9,0.2-1.6,0.5-2.1c0.3-0.4,0.8-0.7,1.4-0.7c0.6,0,1.1,0.2,1.4,0.7C-52.8,79.3-52.6,79.9-52.6,80.8z
				 M-55.2,80.8c0,0.6,0.1,1.1,0.2,1.4s0.3,0.4,0.6,0.4c0.3,0,0.4-0.1,0.6-0.4c0.1-0.3,0.2-0.7,0.2-1.4c0-0.6-0.1-1.1-0.2-1.4
				c-0.1-0.3-0.3-0.4-0.6-0.4c-0.3,0-0.5,0.1-0.6,0.4C-55.2,79.7-55.2,80.2-55.2,80.8z"/>
			<path id="XMLID_252_" class="st2" d="M-49.3,83.5h-1.1v-3.1l0-0.5l0-0.6c-0.2,0.2-0.3,0.3-0.4,0.4l-0.6,0.5l-0.5-0.7l1.7-1.4h0.9
				V83.5z"/>
			<path id="XMLID_250_" class="st2" d="M-45.1,83.5h-1.1v-3.1l0-0.5l0-0.6c-0.2,0.2-0.3,0.3-0.4,0.4l-0.6,0.5l-0.5-0.7l1.7-1.4h0.9
				V83.5z"/>
			<path id="XMLID_247_" class="st2" d="M-39.9,80.8c0,0.9-0.2,1.6-0.5,2.1c-0.3,0.4-0.8,0.7-1.4,0.7c-0.6,0-1.1-0.2-1.4-0.7
				c-0.3-0.5-0.5-1.1-0.5-2c0-0.9,0.2-1.6,0.5-2.1c0.3-0.4,0.8-0.7,1.4-0.7c0.6,0,1.1,0.2,1.4,0.7C-40.1,79.3-39.9,79.9-39.9,80.8z
				 M-42.5,80.8c0,0.6,0.1,1.1,0.2,1.4s0.3,0.4,0.6,0.4c0.3,0,0.4-0.1,0.6-0.4c0.1-0.3,0.2-0.7,0.2-1.4c0-0.6-0.1-1.1-0.2-1.4
				c-0.1-0.3-0.3-0.4-0.6-0.4c-0.3,0-0.5,0.1-0.6,0.4C-42.5,79.7-42.5,80.2-42.5,80.8z"/>
			<path id="XMLID_245_" class="st2" d="M-36.6,83.5h-1.1v-3.1l0-0.5l0-0.6c-0.2,0.2-0.3,0.3-0.4,0.4l-0.6,0.5l-0.5-0.7l1.7-1.4h0.9
				V83.5z"/>
			<path id="XMLID_243_" class="st2" d="M-53.5,91.1h-1.1V88l0-0.5l0-0.6c-0.2,0.2-0.3,0.3-0.4,0.4l-0.6,0.5l-0.5-0.7l1.7-1.4h0.9
				V91.1z"/>
			<path id="XMLID_240_" class="st2" d="M-48.4,88.5c0,0.9-0.2,1.6-0.5,2.1c-0.3,0.4-0.8,0.7-1.4,0.7c-0.6,0-1.1-0.2-1.4-0.7
				c-0.3-0.5-0.5-1.1-0.5-2c0-0.9,0.2-1.6,0.5-2.1c0.3-0.4,0.8-0.7,1.4-0.7c0.6,0,1.1,0.2,1.4,0.7C-48.6,86.9-48.4,87.6-48.4,88.5z
				 M-51,88.5c0,0.6,0.1,1.1,0.2,1.4s0.3,0.4,0.6,0.4c0.3,0,0.4-0.1,0.6-0.4c0.1-0.3,0.2-0.7,0.2-1.4c0-0.6-0.1-1.1-0.2-1.4
				c-0.1-0.3-0.3-0.4-0.6-0.4c-0.3,0-0.5,0.1-0.6,0.4C-50.9,87.3-51,87.8-51,88.5z"/>
			<path id="XMLID_237_" class="st2" d="M-44.2,88.5c0,0.9-0.2,1.6-0.5,2.1c-0.3,0.4-0.8,0.7-1.4,0.7c-0.6,0-1.1-0.2-1.4-0.7
				c-0.3-0.5-0.5-1.1-0.5-2c0-0.9,0.2-1.6,0.5-2.1c0.3-0.4,0.8-0.7,1.4-0.7c0.6,0,1.1,0.2,1.4,0.7C-44.3,86.9-44.2,87.6-44.2,88.5z
				 M-46.8,88.5c0,0.6,0.1,1.1,0.2,1.4s0.3,0.4,0.6,0.4c0.3,0,0.4-0.1,0.6-0.4c0.1-0.3,0.2-0.7,0.2-1.4c0-0.6-0.1-1.1-0.2-1.4
				c-0.1-0.3-0.3-0.4-0.6-0.4c-0.3,0-0.5,0.1-0.6,0.4C-46.7,87.3-46.8,87.8-46.8,88.5z"/>
			<path id="XMLID_235_" class="st2" d="M-40.8,91.1H-42V88l0-0.5l0-0.6c-0.2,0.2-0.3,0.3-0.4,0.4l-0.6,0.5l-0.5-0.7l1.7-1.4h0.9
				V91.1z"/>
			<path id="XMLID_232_" class="st2" d="M-35.7,88.5c0,0.9-0.2,1.6-0.5,2.1c-0.3,0.4-0.8,0.7-1.4,0.7c-0.6,0-1.1-0.2-1.4-0.7
				c-0.3-0.5-0.5-1.1-0.5-2c0-0.9,0.2-1.6,0.5-2.1c0.3-0.4,0.8-0.7,1.4-0.7c0.6,0,1.1,0.2,1.4,0.7C-35.9,86.9-35.7,87.6-35.7,88.5z
				 M-38.3,88.5c0,0.6,0.1,1.1,0.2,1.4c0.1,0.3,0.3,0.4,0.6,0.4c0.3,0,0.4-0.1,0.6-0.4c0.1-0.3,0.2-0.7,0.2-1.4
				c0-0.6-0.1-1.1-0.2-1.4c-0.1-0.3-0.3-0.4-0.6-0.4c-0.3,0-0.5,0.1-0.6,0.4C-38.2,87.3-38.3,87.8-38.3,88.5z"/>
		</g>
	</g>
	<g id="XMLID_78_" class="st1">
		<g id="XMLID_63_">
			<path id="XMLID_64_" class="st2" d="M-59.2,90.8c0,0.7,0.3,1.3,0.8,1.6c0.5,0.3,1.2,0.5,2.2,0.5v1.5c-1.6,0-2.9-0.3-3.8-1
				c-0.9-0.6-1.3-1.5-1.3-2.6v-3.3c0-0.8-0.3-1.3-0.8-1.6c-0.5-0.3-1.3-0.5-2.4-0.5v-1.6c1.1,0,1.9-0.2,2.4-0.5
				c0.5-0.3,0.8-0.9,0.8-1.6v-3.4c0-1.1,0.5-2,1.4-2.7c0.9-0.6,2.2-0.9,3.8-0.9v1.5c-2,0-3,0.8-3,2.2v3.2c0,1.6-1,2.5-2.9,2.8v0.1
				c1.9,0.3,2.9,1.2,2.9,2.8V90.8z"/>
		</g>
	</g>
	<g id="XMLID_54_" class="st1">
		<g id="XMLID_66_">
			<path id="XMLID_67_" class="st2" d="M-32.6,78.6c0-0.7-0.3-1.3-0.8-1.6c-0.5-0.3-1.2-0.5-2.2-0.5v-1.5c1.6,0,2.9,0.3,3.8,1
				c0.9,0.6,1.3,1.5,1.3,2.6v3.3c0,0.8,0.3,1.3,0.8,1.6c0.5,0.3,1.3,0.5,2.4,0.5v1.6c-1.1,0-1.9,0.2-2.4,0.5
				c-0.5,0.3-0.8,0.9-0.8,1.6V91c0,1.1-0.5,2-1.4,2.7c-0.9,0.6-2.2,0.9-3.8,0.9V93c2,0,3-0.8,3-2.2v-3.2c0-1.6,1-2.5,2.9-2.8v-0.1
				c-1.9-0.3-2.9-1.2-2.9-2.8V78.6z"/>
		</g>
	</g>
</g>
<g id="XMLID_61_" class="st0">
	<circle id="XMLID_43_" class="st3" cx="-264.5" cy="-201.4" r="3.6"/>
	<rect id="XMLID_42_" x="-266" y="-199.4" class="st3" width="3.1" height="7.7"/>
	<path id="XMLID_69_" class="st3" d="M-252.7-212.3c-0.5,0-0.9-0.4-1-0.8c-0.7-5.3-5.3-9.4-10.8-9.4s-10.1,4.1-10.8,9.4
		c-0.1,0.5-0.5,0.8-1,0.8h-2.4c-0.5,0-1,0.4-1,1v25.9c0,0.5,0.4,1,1,1h27.3c0.5,0,1-0.4,1-1v-25.9c0-0.5-0.4-1-1-1H-252.7z
		 M-264.5-220.6c4.2,0,7.7,3.1,8.5,7.1c0.1,0.6-0.3,1.2-0.9,1.2h-15.2c-0.6,0-1.1-0.6-0.9-1.2C-272.2-217.4-268.7-220.6-264.5-220.6
		z M-253.3-186.4h-23.4c-0.5,0-1-0.4-1-1v-22c0-0.5,0.4-1,1-1h23.4c0.5,0,1,0.4,1,1v22C-252.3-186.9-252.7-186.4-253.3-186.4z"/>
</g>
<path id="XMLID_44_" class="st4" d="M-155.8-156.7l-22.8,24.9l-0.7-1.3l0-0.3l-15.5-13.6l5.7-6.6l10.5,10.9c0,0,22.7-23.8,22.7-23.8
	h-45.5c-0.1,6-0.2,15.6-0.2,21.3v0c0,0-0.8,9.4,5.2,15.2c0,0,10.5,8.5,17.5,11.5h0.4c7.1-3,15.1-9.1,15.1-9.1c6-5.8,7-12.9,7-12.9h0
	C-155.9-144.5-155.8-151.4-155.8-156.7z"/>
<circle id="XMLID_55_" class="st4" cx="-266.4" cy="-123.4" r="3.8"/>
<circle id="XMLID_51_" class="st4" cx="-235.8" cy="-107.3" r="3.8"/>
<circle id="XMLID_50_" class="st4" cx="-270.6" cy="-89.4" r="3.8"/>
<line id="XMLID_49_" class="st5" x1="-258.8" y1="-101.7" x2="-235.6" y2="-107.3"/>
<line id="XMLID_48_" class="st5" x1="-259" y1="-102" x2="-266" y2="-122.5"/>
<line id="XMLID_47_" class="st5" x1="-270.4" y1="-89.6" x2="-258.1" y2="-101.5"/>
<circle id="XMLID_46_" class="st6" cx="-258.3" cy="-101.7" r="10"/>
<circle id="XMLID_45_" class="st4" cx="-258.3" cy="-101.7" r="6.4"/>
<g>
	<path class="st7" d="M12.1,29.9c-0.7,0-1.6-1.1-2.6-3.2c-0.9-0.1-1.7-0.3-2.7-0.4l-0.6-0.1c-1.2-0.2-2.1-1-2.8-2.4
		c-0.5-1-0.8-2.2-0.9-3.6C0.8,19.6,0,18.9,0,18c0-0.9,1.2-1.7,2.7-2.3c0.3-1.8,0.8-3.6,1.5-5c-0.6-0.1-1.2-0.4-1.5-0.7
		C2.3,9.6,2,8.9,2.4,7.7C4.1,2.4,8.9,0,12.8,0c1.9,0,3.2,0.6,3.6,1.5c0.1,0.4,0,1-0.4,1.9c1.1,0.3,2.4,1,3.7,2
		c0.2-0.9,0.3-1.5,0.1-1.8c0,0-0.1-0.1-0.4-0.1l-0.1-1c0.8-0.1,1.2,0.3,1.4,0.5c0.4,0.6,0.3,1.7-0.1,3c0.2,0.2,0.4,0.3,0.6,0.5
		c1.4-0.5,2.7-0.9,3.7-1.2c3.2-1,3.2-1,3.4-0.5c0.2,0.5-0.1,0.6-1.7,1.4c-1.5,0.7-2.4,1.6-3,2.6c0.8,0.8,1.6,1.8,2.5,2.8
		c0.9,1.1,1.2,2.5,0.7,4.2c-0.4,1.4-1.2,2.9-2.2,4.3c0.5,2.3,0.6,4.3-0.5,5.9c-1.2,1.6-3.3,1.1-5.8-0.1c-0.2,0.1-0.4,0.2-0.6,0.3
		c-1.2,0.5-2.4,0.7-3.6,0.8l-0.2,0.8L13.5,27c-0.3,0-0.7,0-1,0c0.3,0.8,0.4,1.4,0.4,1.9c0,0.8-0.5,1-0.7,1
		C12.1,29.9,12.1,29.9,12.1,29.9z M10.7,26.9c0.6,1.1,1,1.6,1.2,1.9c0-0.3-0.1-1-0.5-1.8C11.2,26.9,10.9,26.9,10.7,26.9z M19.1,25.2
		c1.8,0.8,3.2,1.1,3.9,0.2c0.8-1.1,0.8-2.6,0.5-4.3C22.1,22.8,20.5,24.3,19.1,25.2z M12.1,26c0.5,0,0.9,0,1.3,0l-0.3-2.8
		c-0.3,0-0.5-0.1-0.8-0.1c-0.6-0.1-1.2-0.1-1.8-0.2c-0.1,0.1-0.2,0.2-0.3,0.3C11,24.1,11.6,25.1,12.1,26z M14.7,23.8l-0.6,2.1
		c1-0.1,2-0.3,2.9-0.7C16.2,24.8,15.5,24.3,14.7,23.8z M10.2,25.8c0.2,0,0.5,0.1,0.7,0.1c-0.3-0.6-0.8-1.3-1.5-2.1c0,0,0,0,0,0
		c0,0.1,0.1,0.2,0.1,0.3C9.7,24.8,10,25.3,10.2,25.8z M3.6,20.5c0.1,1.1,0.4,2.1,0.8,2.9c0.5,1.1,1.2,1.7,2,1.8L7,25.3
		c0.7,0.1,1.4,0.2,2,0.3c-0.2-0.4-0.3-0.7-0.5-1.1c0,0,0-0.1,0-0.1c-0.6,0.3-1.1,0.5-1.6,0.4c-0.5-0.1-0.8-0.3-1-0.7
		c-0.2-0.4-0.2-1-0.1-1.7v-1.1c-0.5-0.2-1.1-0.4-1.7-0.6C3.9,20.6,3.7,20.6,3.6,20.5z M15.5,23.1c0.9,0.6,1.7,1.1,2.6,1.6
		c1.5-0.9,3.6-2.8,5.2-4.8c0-0.1-0.1-0.2-0.1-0.4c-0.1,0.3-0.3,0.6-0.5,0.9c-0.9,1.1-2.6,2-4.2,1.6c-0.5-0.1-1.1-0.5-1.6-1.2
		C16.4,21.9,16,22.7,15.5,23.1z M6.7,23.3c0,0.1,0,0.2,0.1,0.3c0,0.1,0.1,0.2,0.3,0.2c0.3,0,0.6-0.1,1.1-0.4C8.1,23.2,8,23,7.9,22.7
		L6.7,23.3z M14,22.2C14,22.2,14.1,22.2,14,22.2l0.7-2.6l-1,0.4L14,22.2z M6.9,21.8c0,0.1-0.1,0.2-0.1,0.3L7.1,22
		C7.1,21.9,7,21.9,6.9,21.8z M15.8,19.5l-0.7,2.6c0.3-0.4,0.7-1.2,1.1-2.1C16.1,19.8,16,19.7,15.8,19.5z M11.3,22
		c0.2,0,0.5,0.1,0.7,0.1c-0.2-0.1-0.3-0.2-0.5-0.3C11.4,21.8,11.4,21.9,11.3,22z M10.1,21.7C10.1,21.7,10.1,21.7,10.1,21.7
		C10.2,21.7,10.2,21.7,10.1,21.7L10.1,21.7z M12.2,20.9c0.3,0.2,0.5,0.3,0.8,0.5l-0.1-1l-0.5,0.2C12.3,20.8,12.2,20.9,12.2,20.9z
		 M8.6,20.7c0,0.1,0.1,0.2,0.1,0.3c0,0.1,0.1,0.1,0.2,0.2l0.9-0.4c-0.5-0.3-0.9-0.4-1.1-0.2C8.7,20.5,8.7,20.6,8.6,20.7z M17.3,19.9
		c0.5,0.7,1,1.1,1.4,1.2c1.1,0.3,2.5-0.4,3.2-1.3c0.3-0.4,0.4-0.8,0.4-0.9c0-0.1-0.1-0.1-0.2-0.2c-1,0.1-2.3,0.1-4.3,0
		C17.7,19.1,17.5,19.5,17.3,19.9z M7.2,20.9c0.1,0.1,0.3,0.2,0.4,0.2c0-0.2,0-0.3,0-0.4c0-0.4,0-0.9,0.2-1.4
		c0.2-0.4,0.5-0.9,0.8-1.4c-0.1,0-0.1,0-0.2,0C8,19,7.5,20,7.2,20.9z M8.9,19.5c0.5,0,1.2,0.3,2.1,0.7l0.8-0.4
		c0.1-0.1,0.2-0.2,0.3-0.3c-0.3-0.2-0.7-0.5-0.7-1.4c0,0,0,0,0-0.1c-0.5,0-1-0.1-1.4-0.1C9.4,18.5,9.1,19,8.9,19.5z M3.5,19.5
		c0.3,0.1,0.5,0.2,0.8,0.2c0.5,0.1,1,0.3,1.4,0.5V18c-0.4,0-0.8-0.1-1.1-0.5c-0.3-0.3-0.3-0.8-0.2-1.4c-0.3,0.1-0.6,0.2-0.9,0.3
		C3.5,17.5,3.4,18.5,3.5,19.5z M6.8,17.9v1.4c0.2-0.4,0.4-0.9,0.6-1.4C7.2,17.9,7,17.9,6.8,17.9z M2.6,16.9c-1,0.4-1.6,0.8-1.6,1.2
		c0,0.1,0,0.5,1.5,1.1C2.5,18.4,2.5,17.6,2.6,16.9z M16.5,18.8c0,0.1,0.1,0.1,0.1,0.2c0-0.1,0.1-0.2,0.1-0.3L16.5,18.8z M23.3,15.6
		c0.1,0.6,0.3,1.3,0.5,1.9c0.1,0.4,0.2,0.9,0.3,1.3c0.7-1.1,1.3-2.2,1.6-3.3c0.3-1.3,0.2-2.4-0.5-3.3c-0.7-0.9-1.4-1.7-2.1-2.4
		c-0.2,0.7-0.3,1.4-0.2,2.1l2.1,2.9L23.3,15.6z M12.3,18.2c0,0.4,0.2,0.4,0.2,0.5c0.1,0,0.1,0,0.2,0l0-0.4
		C12.5,18.2,12.4,18.2,12.3,18.2z M19.4,17.4c0.7,0.1,1.4,0.2,2,0.2c0.3,0,0.6,0,0.8,0.1c0.3,0,0.5-0.1,0.5-0.2c0,0-0.1-0.1-0.3-0.4
		c-0.2-0.2-0.5-0.5-0.8-0.7L19.4,17.4z M10.6,17c0.3,0,0.7,0.1,1,0.1c0.1-0.1,0.2-0.2,0.2-0.2c0.2-0.1,0.4-0.2,0.6-0.3l-0.2-1.5
		C11.7,15.7,11.1,16.4,10.6,17z M16.5,16.8c0.3,0.1,0.5,0.1,0.8,0.2c0.4-1.2,0.8-2.3,1-3.1c-0.2-0.1-0.4-0.3-0.6-0.4
		c0,0.2,0,0.4,0,0.6c-0.2,0.9-0.6,1.8-1.2,2.6L16.5,16.8z M5.6,15.8c-0.2,0.5-0.3,0.9-0.1,1.1c0,0,0.1,0.1,0.3,0.1v-1.2
		C5.7,15.8,5.7,15.8,5.6,15.8z M9,16.9c0.1,0,0.3,0,0.4,0c0.7-0.9,1.5-1.8,2.4-2.8c-0.5,0-1,0-1.3-0.1C9.9,15,9.4,16,9,16.9z
		 M6.8,15.5v1.3c0.3,0,0.7,0,1.1,0c0.5-1,1-2,1.6-3.1c-0.1,0-0.1-0.1-0.2-0.1l-0.5,1.5l-0.3,0.1C7.9,15.3,7.3,15.4,6.8,15.5z
		 M19.3,14.5c-0.3,0.8-0.5,1.5-0.7,2.2l2.3-1.1C20.3,15.3,19.8,14.9,19.3,14.5z M15.3,16.6C15.3,16.6,15.4,16.6,15.3,16.6
		c0.2-0.1,0.3-0.2,0.4-0.3l0.1-0.5C15.6,16.1,15.5,16.3,15.3,16.6C15.3,16.6,15.3,16.6,15.3,16.6z M13.5,16.4c0.2,0,0.4,0,0.6,0
		c-0.3-0.6-0.6-1.1-0.8-1.7L13.5,16.4C13.5,16.4,13.5,16.4,13.5,16.4z M14,14c0.2,0.5,0.5,1,0.7,1.5c0.4-0.6,0.7-1.2,1.1-1.8
		C15.2,13.9,14.6,14,14,14z M5.3,10.9c-0.7,1.2-1.2,2.8-1.5,4.4c0.4-0.1,0.7-0.2,1.1-0.3c0.2-0.6,0.5-1.3,0.9-2v-2.1
		C5.6,10.9,5.4,10.9,5.3,10.9z M19.6,13.5c0.8,0.6,1.6,1.2,2.2,1.7l0.4-0.2c-0.2-0.9-0.3-1.8-0.4-2.7l-2.4-3.3c-0.5,1-1,2.1-1.6,3.2
		c0.6-0.2,1-0.4,1.3-0.6c0.4-1.1,0.5-1.2,0.9-1.1c0.2,0,0.5,0.2,0.5,0.7c0,0.4-0.2,0.7-0.5,1C19.9,12.6,19.7,13.1,19.6,13.5z
		 M23,13.9c0,0.2,0.1,0.5,0.1,0.7l0.3-0.1L23,13.9z M6.8,13.2v1.3c0.5-0.1,0.9-0.2,1.2-0.3l0.6-1.6c0,0,0,0,0,0
		c0-0.2,0.1-0.5,0.3-0.8l0.4-1.2c-0.5,0.1-0.9,0.1-1.3,0.2c-0.3,0.7-0.6,1.3-1,2C6.9,12.9,6.8,13.1,6.8,13.2z M10.9,13.1
		c0.3,0,0.8,0.1,1.2,0.1L12,11.8c-0.1,0-0.2,0-0.3,0C11.4,12.2,11.2,12.7,10.9,13.1z M15,12.1c-0.3,0.3-0.6,0.6-0.9,1
		c0.8-0.1,1.5-0.2,2.1-0.4c0,0,0,0-0.1,0C15.9,12.4,15.5,12.2,15,12.1z M9.6,12.7c0.1,0,0.2,0.1,0.3,0.2c0.1-0.3,0.3-0.6,0.5-0.8
		c-0.1,0-0.3,0.1-0.4,0.1c-0.1,0.1-0.2,0.1-0.3,0.2L9.6,12.7z M13,11.7c0.1,0.2,0.2,0.5,0.3,0.7c0,0,0,0,0,0
		c0.2-0.2,0.4-0.4,0.5-0.6C13.6,11.8,13.3,11.8,13,11.7z M15.9,11.2c0.3,0.2,0.7,0.4,1,0.6l0.9-3.2c-0.1,0-0.1,0-0.2,0
		C17.6,9.1,17.1,9.8,15.9,11.2z M10.4,10.4L10.2,11c0.3-0.1,0.5-0.1,0.8-0.2c0.1-0.2,0.2-0.4,0.3-0.6C11,10.3,10.7,10.4,10.4,10.4z
		 M6.8,10.9L6.8,10.9C6.8,10.9,6.8,10.9,6.8,10.9C6.8,10.9,6.8,10.9,6.8,10.9z M13.1,9.8c0.6,0.3,1.2,0.6,1.8,0.9
		c0.6-0.6,1.1-1.2,1.4-1.6c-0.1,0-0.2,0-0.3,0C15,9.4,14.1,9.6,13.1,9.8z M19.9,8l2,2.7c0.1-0.6,0.2-1.1,0.4-1.7
		c-0.5-0.5-0.9-0.9-1.4-1.4C20.5,7.8,20.2,7.9,19.9,8C19.9,8,19.9,8,19.9,8z M6.8,9.7v0.2c0.2,0,0.3,0,0.5,0c0-0.1,0.1-0.2,0.1-0.3
		c0,0,0,0-0.1,0C7.1,9.6,7,9.6,6.8,9.7z M12.8,1c-2.7,0-7.7,1.5-9.5,7C3,8.9,3.3,9.2,3.4,9.3c0.3,0.3,0.7,0.5,1.3,0.6
		C5,9.5,5.4,9.2,5.8,9V6.2L6,6c0.2-0.1,2.9-1.6,5.7-2.4L12,2.8l0.1,0.7c1-0.2,1.9-0.4,2.9-0.3c0.3-0.7,0.5-1.2,0.4-1.4
		C15.3,1.5,14.4,1,12.8,1z M8.5,9.5c0,0.1-0.1,0.1-0.1,0.2c0.3,0,0.5-0.1,0.8-0.1C8.9,9.6,8.7,9.6,8.5,9.5z M10.9,9
		c0.2,0.1,0.4,0.1,0.6,0.2c0.1,0,0.2,0,0.2-0.1l-0.2-1.5c0,0-0.1,0-0.1,0L10.9,9z M13.5,8.4c-0.1,0.1-0.1,0.2-0.2,0.3
		c0.2-0.1,0.4-0.1,0.6-0.2C13.8,8.5,13.6,8.5,13.5,8.4z M8.8,8.6c0.3,0,0.7,0.1,1.1,0.2l0.5-1.4c-0.3,0-0.5,0-0.7,0.1
		C9.3,7.6,9.1,8,8.8,8.6z M6.8,6.8v1.9c0.1,0,0.3-0.1,0.4-0.1c0.2,0,0.4,0,0.6,0c0-0.1,0-0.1,0.1-0.2c0.3-0.9,0.8-1.5,1.4-1.8
		c0.5-0.2,1-0.2,1.5-0.1l0.6-1.6C9.3,5.4,7.4,6.4,6.8,6.8z M13.9,7.5c0.7,0.3,1.4,0.5,2,0.5c0.7-0.2,1.4-0.4,2.1-0.6L18.4,6l0.7,1
		c0.1-0.2,0.1-0.4,0.2-0.6c-1.4-1.1-2.7-1.8-3.8-2.1C15.2,5.2,14.6,6.2,13.9,7.5z M21.9,7.3c0.2,0.2,0.5,0.5,0.8,0.8
		c0.3-0.5,0.7-0.9,1.1-1.3C23.2,6.9,22.6,7.1,21.9,7.3z M12.5,6.9C12.6,7,12.8,7.1,13,7.1c0.6-1,1.1-2.1,1.5-2.9c0,0,0,0,0,0
		c-0.7,0-1.5,0.1-2.3,0.3L12.5,6.9z"/>
</g>
</svg>
